:SAMPLES-PER-SECOND 30
:FULLY-SPECIFIED
:DEGREES
1
root  10.7433 40.7265 -1.97572 -74.6753 -87.7707 71.7581
RightUpLeg  -2.38679 -10.7339 -6.38345
RightLeg  9.98952 -7.69499 2.34717
RightFoot  -5.12119 -0.0496911 0.324364
RightToes  0.00048216 0.542163 -0.142577
Spine  7.33895 0.168224 -2.4953
Spine1  -6.52884 0.0435203 0.682859
HEad  -2.7382 -10.7789 -0.416172
LeftShoulder1  0.820232 -1.91019 -7.51197
LeftArm  -18.0866 8.28337 -3.7765
LeftForeArm  6.16861 -0.801447 -1.61846
LeftHand  -0.25398 0.0180481 5.50724
RightShoulder  0.450624 -0.720388 8.77008
RightArm  -19.6007 -5.98122 2.00966
RightForeArm  -2.19742 2.44606 2.99258
RightHand  -2.60769 7.69115 -23.2564
LeftUpLeg  -2.80098 3.47326 -0.23103
LeftLeg  4.8849 13.1656 -2.83139
LeftFoot  -1.30291 -0.13256 1.58041
LeftToes  1.06244e-005 4.65854e-005 -8.18505e-006
2
root  10.7207 40.7311 -1.9626 -82.0104 -87.8608 79.0688
RightUpLeg  -2.30782 -10.6737 -6.39103
RightLeg  9.8502 -7.49055 2.45083
RightFoot  -4.9715 -0.0418865 0.203205
RightToes  0.00048216 0.542163 -0.142577
Spine  7.27418 0.204698 -2.55409
Spine1  -6.40063 0.0615287 0.815394
HEad  -2.5611 -10.6254 -0.522617
LeftShoulder1  0.827428 -1.93273 -7.58971
LeftArm  -18.1564 8.26371 -3.90815
LeftForeArm  6.30706 -0.64772 -1.56757
LeftHand  -0.25398 0.0180481 5.50724
RightShoulder  0.469852 -0.609765 8.82239
RightArm  -19.5119 -6.01323 1.99966
RightForeArm  -1.7721 2.46166 2.99845
RightHand  -2.60893 7.82979 -23.036
LeftUpLeg  -2.69782 3.50593 -0.193749
LeftLeg  4.85614 13.4061 -2.83814
LeftFoot  -1.34375 -0.136225 1.63738
LeftToes  1.06244e-005 4.65854e-005 -8.18505e-006
3
root  10.6747 40.7418 -1.93695 -96.9935 -87.9705 93.9793
RightUpLeg  -2.13864 -10.4862 -6.34596
RightLeg  9.61239 -7.20164 2.57636
RightFoot  -4.72757 -0.0260432 -0.0427747
RightToes  0.00048216 0.542163 -0.142577
Spine  7.16271 0.280939 -2.65415
Spine1  -6.15974 0.0964271 1.11461
HEad  -2.16801 -10.3192 -0.774202
LeftShoulder1  0.854273 -2.0281 -7.83988
LeftArm  -18.0825 8.26718 -4.07893
LeftForeArm  6.49962 -0.416677 -1.56181
LeftHand  -0.25398 0.0180481 5.50724
RightShoulder  0.491823 -0.476564 8.83607
RightArm  -19.4675 -6.00575 2.15063
RightForeArm  -1.29355 2.50942 2.99938
RightHand  -2.63032 8.01975 -22.9046
LeftUpLeg  -2.44679 3.61405 -0.0680658
LeftLeg  4.77044 13.8144 -2.89106
LeftFoot  -1.42272 -0.138199 1.66807
LeftToes  1.06244e-005 4.65854e-005 -8.18505e-006
4
root  10.6269 40.753 -1.90401 -111.046 -87.9862 107.942
RightUpLeg  -1.95131 -10.2412 -6.25552
RightLeg  9.40297 -7.03915 2.62535
RightFoot  -4.55054 -0.0118384 -0.263352
RightToes  0.00048216 0.542163 -0.142577
Spine  7.0943 0.308314 -2.63362
Spine1  -5.96969 0.103193 1.27587
HEad  -1.70102 -9.99031 -0.923619
LeftShoulder1  0.885763 -2.15656 -8.0728
LeftArm  -17.9141 8.29557 -4.23791
LeftForeArm  6.82875 -0.263562 -1.59996
LeftHand  -0.25398 0.0180481 5.50724
RightShoulder  0.511771 -0.367253 8.91402
RightArm  -19.437 -5.94377 2.33274
RightForeArm  -1.03353 2.49959 3.00017
RightHand  -2.62789 8.01778 -22.8877
LeftUpLeg  -2.17586 3.75433 0.0874517
LeftLeg  4.6814 14.132 -2.97071
LeftFoot  -1.49245 -0.139222 1.68398
LeftToes  1.06244e-005 4.65854e-005 -8.18505e-006
5
root  10.5889 40.758 -1.8645 -119.823 -87.9332 116.654
RightUpLeg  -1.8157 -10.0762 -6.21178
RightLeg  9.28023 -6.91065 2.62194
RightFoot  -4.48475 -0.0102636 -0.287808
RightToes  0.00048216 0.542163 -0.142577
Spine  7.10736 0.260522 -2.50353
Spine1  -5.90761 0.0692869 1.19226
HEad  -1.29861 -9.7296 -0.824807
LeftShoulder1  0.901251 -2.23012 -8.1515
LeftArm  -17.9589 8.31271 -4.38378
LeftForeArm  7.56144 -0.147817 -1.53779
LeftHand  -0.25398 0.0180481 5.50724
RightShoulder  0.537349 -0.241661 9.08948
RightArm  -19.2854 -5.89025 2.38261
RightForeArm  -0.756706 2.39041 3.0146
RightHand  -2.59721 7.90848 -22.8084
LeftUpLeg  -1.99966 3.85394 0.163579
LeftLeg  4.65334 14.3373 -3.02601
LeftFoot  -1.53969 -0.146039 1.78997
LeftToes  1.06244e-005 4.65854e-005 -8.18505e-006
6
root  10.557 40.7562 -1.81874 -126.237 -87.7942 123.032
RightUpLeg  -1.7619 -10.0492 -6.26196
RightLeg  9.25659 -6.63032 2.61647
RightFoot  -4.48445 -0.0188829 -0.153959
RightToes  0.00048216 0.542163 -0.142577
Spine  7.16631 0.218851 -2.44701
Spine1  -5.90443 0.036683 1.11979
HEad  -1.04286 -9.5978 -0.659636
LeftShoulder1  0.908827 -2.24662 -8.24807
LeftArm  -18.1913 8.28714 -4.41065
LeftForeArm  8.44342 0.00678715 -1.38356
LeftHand  -0.25398 0.0180481 5.50724
RightShoulder  0.554271 -0.147104 9.13535
RightArm  -19.1102 -5.89548 2.43692
RightForeArm  -0.383943 2.29929 3.02872
RightHand  -2.57628 7.86945 -22.6959
LeftUpLeg  -1.90308 3.89986 0.131911
LeftLeg  4.68691 14.5763 -3.04541
LeftFoot  -1.60749 -0.15763 1.97022
LeftToes  1.06244e-005 4.65854e-005 -8.18505e-006
7
root  10.5259 40.7517 -1.76813 -132.168 -87.5792 128.934
RightUpLeg  -1.76928 -10.0754 -6.34548
RightLeg  9.32226 -6.25665 2.58426
RightFoot  -4.52384 -0.0296029 0.0124959
RightToes  0.00048216 0.542163 -0.142577
Spine  7.23216 0.229102 -2.51995
Spine1  -5.8661 0.0276905 1.22262
HEad  -0.92298 -9.57351 -0.649685
LeftShoulder1  0.924851 -2.26515 -8.50074
LeftArm  -18.2714 8.23179 -4.26787
LeftForeArm  8.84625 0.129809 -1.3153
LeftHand  -0.25398 0.0180481 5.50724
RightShoulder  0.54601 -0.164435 8.95383
RightArm  -19.1437 -5.92191 2.62755
RightForeArm  -0.122376 2.31657 3.00436
RightHand  -2.56877 7.8596 -22.6486
LeftUpLeg  -1.82761 3.92195 0.0531361
LeftLeg  4.76598 14.8784 -3.03751
LeftFoot  -1.74778 -0.162709 2.06906
LeftToes  1.06244e-005 4.65854e-005 -8.18505e-006
8
root  10.4963 40.7466 -1.71318 -136.196 -87.4001 132.936
RightUpLeg  -1.79899 -10.0529 -6.39673
RightLeg  9.43638 -5.98817 2.48051
RightFoot  -4.61523 -0.0445843 0.245087
RightToes  0.00048216 0.542163 -0.142577
Spine  7.30022 0.220764 -2.57294
Spine1  -5.79119 0.00257668 1.30579
HEad  -0.830167 -9.52319 -0.741583
LeftShoulder1  0.935122 -2.27145 -8.67915
LeftArm  -18.1752 8.20578 -4.13742
LeftForeArm  8.75212 0.126199 -1.35952
LeftHand  -0.25398 0.0180481 5.50724
RightShoulder  0.532087 -0.225849 8.8222
RightArm  -19.363 -5.90029 2.73477
RightForeArm  -0.0269402 2.3541 2.93967
RightHand  -2.55666 7.81097 -22.6251
LeftUpLeg  -1.78781 3.91979 -0.0374117
LeftLeg  4.90315 15.1297 -2.98291
LeftFoot  -1.95723 -0.153183 2.01023
LeftToes  1.06244e-005 4.65854e-005 -8.18505e-006
